<svg width="174" height="125" viewBox="0 0 174 125" fill="none" xmlns="http://www.w3.org/2000/svg">
<path d="M46.4816 124.5C45.4939 124.5 45 124.006 45 123.018V46.9816C45 45.9939 45.4939 45.5 46.4816 45.5H81.6257C82.5344 45.5 83.3246 45.8161 83.9962 46.4482L95.8492 58.3012C96.5209 58.9729 96.8567 59.7631 96.8567 60.6718V86.452C96.8567 87.4002 96.5209 88.1904 95.8492 88.8226L83.9962 100.676C83.3246 101.347 82.5344 101.683 81.6257 101.683H67.7577V123.018C67.7577 124.006 67.2638 124.5 66.2761 124.5H46.4816ZM70.3653 80.4662C72.6174 80.4662 74.2768 79.9131 75.3436 78.8068C76.4499 77.661 77.003 75.9029 77.003 73.5323C77.003 71.2012 76.4499 69.4825 75.3436 68.3762C74.2768 67.2304 72.6174 66.6575 70.3653 66.6575C68.1528 66.6575 66.4934 67.2304 65.3871 68.3762C64.3203 69.4825 63.7869 71.2012 63.7869 73.5323C63.7869 75.9029 64.3203 77.661 65.3871 78.8068C66.4934 79.9131 68.1528 80.4662 70.3653 80.4662Z" fill="#0074DF"/>
<path d="M85.6716 28C87.4534 28 88.3457 25.8457 87.0858 24.5858L63.3787 0.87868C62.8161 0.316071 62.053 0 61.2574 0H4C1.79083 0 0 1.79089 0 4V99.5C0 101.157 1.34315 102.5 3 102.5H25C26.6569 102.5 28 101.157 28 99.5V31C28 29.3431 29.3431 28 31 28H85.6716Z" fill="#9800DF"/>
<rect width="41" height="22" rx="3" transform="matrix(-1 0 0 1 174 77.5)" fill="url(#paint0_linear_2_129)"/>
<rect width="41" height="22" rx="3" transform="matrix(-1 0 0 1 158 49.5)" fill="url(#paint1_linear_2_129)"/>
<rect x="109" y="102.5" width="22" height="22" rx="3" fill="#9800DF"/>
<rect width="22" height="22" rx="3" transform="matrix(-1 0 0 1 120 23.5)" fill="#0074DF"/>
<defs>
<linearGradient id="paint0_linear_2_129" x1="41" y1="10.5" x2="1.293e-07" y2="10.5" gradientUnits="userSpaceOnUse">
<stop stop-color="#9800DF"/>
<stop offset="1" stop-color="#9800DF" stop-opacity="0.1"/>
</linearGradient>
<linearGradient id="paint1_linear_2_129" x1="3.78687e-08" y1="13.5" x2="41" y2="13.5" gradientUnits="userSpaceOnUse">
<stop stop-color="#0074DF"/>
<stop offset="1" stop-color="#0074DF" stop-opacity="0.1"/>
</linearGradient>
</defs>
</svg>
