<svg version="1.1" viewBox="0 0 640 400" xmlns="http://www.w3.org/2000/svg" xmlns:xlink="http://www.w3.org/1999/xlink" xmlns:svgjs="http://svgjs.dev/svgjs" matcher="0.8931383620032789"><g viewBox="0 0 640 400" matcher="0.8931383620032789"><g matcher="0.8931383620032789"><g matcher="0.8931383620032789"><g matcher="0.8931383620032789"><svg viewBox="0 0 640 400" data-background-color="#eae5df" preserveAspectRatio="xMidYMid meet" height="400" width="640" xmlns="http://www.w3.org/2000/svg" xmlns:xlink="http://www.w3.org/1999/xlink"><rect width="640" height="400" x="0" y="0" opacity="1" fill="#eae5df" data-fill-palette-color="background" id="background"></rect><g id="tight-bounds" transform="matrix(1,0,0,1,126.37835360099686,76.4)"><svg viewBox="0 0 387.2432927980063 247.2" height="247.2" width="387.2432927980063"><g><svg viewBox="0 0 395.52 252.48350537862012" height="247.2" width="387.2432927980063"><g transform="matrix(1,0,0,1,0,152.4923138237333)"><svg viewBox="0 0 395.52 99.99119155488681" height="99.99119155488681" width="395.52"><g id="textblocktransform"><svg viewBox="0 0 395.52 99.99119155488681" height="99.99119155488681" width="395.52" id="textblock"><g><svg viewBox="0 0 395.52 60.592720542874765" height="60.592720542874765" width="395.52"><g transform="matrix(1,0,0,1,0,0)"><svg width="395.52" viewBox="0.6500000357627869 -36.75 243.1300048828125 37.25" height="60.592720542874765" data-palette-color="#be959f"><path d="M2.45-33.5L27.95-33.5 29.75-25.5 28.1-25Q27.4-27.65 26.23-29.1 25.05-30.55 22.95-31.15 20.85-31.75 17.45-31.75L17.45-31.75 17.45-2 17.7-1.75 21.7-1.75 21.7 0 8.7 0 8.7-1.75 12.7-1.75 12.95-2 12.95-31.75Q9.55-31.75 7.48-31.15 5.4-30.55 4.2-29.1 3-27.65 2.3-25L2.3-25 0.65-25.5 2.45-33.5ZM41.75-1.5L41.75-1.5Q44.4-1.5 46.22-2.7 48.05-3.9 49.4-5.35L49.4-5.35 50.75-4.2Q49.7-2.95 48.37-1.88 47.05-0.8 45.27-0.15 43.5 0.5 41 0.5L41 0.5Q37.95 0.5 35.32-0.95 32.7-2.4 31.1-5.1 29.5-7.8 29.5-11.5L29.5-11.5Q29.5-15.2 31.1-17.9 32.7-20.6 35.32-22.05 37.95-23.5 41-23.5L41-23.5Q44.1-23.5 46.32-22.3 48.55-21.1 49.77-18.65 51-16.2 51-12.5L51-12.5 33.5-12.5 33.5-14.25 46.2-14.25Q46-17.85 44.77-19.8 43.55-21.75 40.75-21.75L40.75-21.75Q38.3-21.75 36.77-20.45 35.25-19.15 34.55-16.82 33.85-14.5 33.85-11.5L33.85-11.5Q33.85-8.55 34.95-6.3 36.05-4.05 37.85-2.78 39.65-1.5 41.75-1.5ZM66.95 0.5L66.95 0.5Q63.8 0.5 61.2-0.95 58.6-2.4 57.05-5.05 55.5-7.7 55.5-11.3L55.5-11.3Q55.5-15.15 57.15-17.88 58.8-20.6 61.52-22.05 64.25-23.5 67.45-23.5L67.45-23.5Q69.8-23.5 71.8-22.7 73.8-21.9 75.02-20.5 76.25-19.1 76.25-17.25L76.25-17.25Q76.25-16 75.52-15.25 74.8-14.5 73.75-14.5L73.75-14.5Q72.8-14.5 72.02-15.2 71.25-15.9 71.25-17L71.25-17Q71.25-17.8 71.7-18.48 72.15-19.15 73.3-19.45L73.3-19.45Q72.25-20.6 70.77-21.18 69.3-21.75 67.4-21.75L67.4-21.75Q64.7-21.75 63.05-20.43 61.4-19.1 60.62-16.85 59.85-14.6 59.85-11.85L59.85-11.85Q59.85-8.6 60.9-6.28 61.95-3.95 63.72-2.73 65.5-1.5 67.65-1.5L67.65-1.5Q69.65-1.5 71.55-2.68 73.45-3.85 75.15-6.1L75.15-6.1 76.5-4.95Q75.25-3.25 73.84-2.02 72.45-0.8 70.75-0.15 69.05 0.5 66.95 0.5ZM103.74-17L103.74-2 103.99-1.75 107.74-1.75 107.74 0 95.74 0 95.74-1.75 99.49-1.75 99.74-2 99.74-16Q99.74-18.45 98.89-19.85 98.04-21.25 95.74-21.25L95.74-21.25Q93.64-21.25 91.72-19.83 89.79-18.4 87.74-15L87.74-15 87.74-2 87.99-1.75 91.74-1.75 91.74 0 79.74 0 79.74-1.75 83.49-1.75 83.74-2 83.74-34.5 83.49-34.75 79.74-34.75 79.74-36.5Q81.04-36.5 82.32-36.52 83.59-36.55 84.89-36.6 86.19-36.65 87.49-36.75L87.49-36.75 87.74-36.5 87.74-18.25Q89.19-20.6 91.39-22.05 93.59-23.5 96.84-23.5L96.84-23.5Q99.44-23.5 100.94-22.63 102.44-21.75 103.09-20.28 103.74-18.8 103.74-17L103.74-17ZM138.74 0L123.74 0 123.74-1.75 127.74-1.75 127.99-2 127.99-31.5 127.74-31.75 123.74-31.75 123.74-33.5 138.49-33.5Q140.64-33.5 142.84-33.08 145.04-32.65 146.89-31.63 148.74-30.6 149.86-28.83 150.99-27.05 150.99-24.4L150.99-24.4Q150.99-21.8 149.79-19.93 148.59-18.05 146.69-16.85 144.79-15.65 142.61-15.08 140.44-14.5 138.49-14.5L138.49-14.5 130.24-14.5 132.49-14.95 132.49-2 132.74-1.75 138.74-1.75 138.74 0ZM132.49-31.5L132.49-15.75 130.24-16.25 137.49-16.25Q139.94-16.25 141.91-16.88 143.89-17.5 145.06-19.18 146.24-20.85 146.24-24L146.24-24Q146.24-26.75 145.04-28.45 143.84-30.15 141.84-30.95 139.84-31.75 137.49-31.75L137.49-31.75 132.74-31.75 132.49-31.5ZM175.04-23L175.04-2 175.29-1.75 179.04-1.75 179.04 0Q177.74 0 176.51 0.03 175.29 0.05 174.06 0.1 172.84 0.15 171.54 0.25L171.54 0.25 171.29 0 171.29-4.75 171.04-4.75Q169.64-2.4 167.54-0.95 165.44 0.5 162.19 0.5L162.19 0.5Q159.74 0.5 158.29-0.38 156.84-1.25 156.19-2.73 155.54-4.2 155.54-6L155.54-6 155.54-21 155.29-21.25 151.54-21.25 151.54-23Q152.84-23 154.14-23.03 155.44-23.05 156.71-23.1 157.99-23.15 159.29-23.25L159.29-23.25 159.54-23 159.54-7Q159.54-4.55 160.36-3.15 161.19-1.75 163.29-1.75L163.29-1.75Q165.39-1.75 167.21-3.18 169.04-4.6 171.04-8L171.04-8 171.04-21 170.79-21.25 167.04-21.25 167.04-23Q168.34-23 169.64-23.03 170.94-23.05 172.21-23.1 173.49-23.15 174.79-23.25L174.79-23.25 175.04-23ZM194.38 0L182.38 0 182.38-1.75 186.13-1.75 186.38-2 186.38-34.5 186.13-34.75 182.38-34.75 182.38-36.5Q183.68-36.5 184.96-36.52 186.23-36.55 187.53-36.6 188.83-36.65 190.13-36.75L190.13-36.75 190.38-36.5 190.38-2 190.63-1.75 194.38-1.75 194.38 0ZM203.03-18.05L203.03-18.05Q203.03-16.7 204.06-15.93 205.08-15.15 206.71-14.63 208.33-14.1 210.16-13.55 211.98-13 213.61-12.18 215.23-11.35 216.26-9.98 217.28-8.6 217.28-6.35L217.28-6.35Q217.28-3.85 216.01-2.33 214.73-0.8 212.91-0.15 211.08 0.5 209.38 0.5L209.38 0.5Q207.33 0.5 205.71-0.05 204.08-0.6 202.78-1.5L202.78-1.5 202.03 0 200.13 0Q199.83-1.95 199.41-3.88 198.98-5.8 198.38-7.75L198.38-7.75 200.03-8.25Q201.38-5.45 203.08-3.93 204.78-2.4 206.43-1.83 208.08-1.25 209.28-1.25L209.28-1.25Q211.03-1.25 212.41-2.23 213.78-3.2 213.78-5.2L213.78-5.2Q213.78-6.75 212.76-7.63 211.73-8.5 210.11-9.05 208.48-9.6 206.66-10.13 204.83-10.65 203.21-11.4 201.58-12.15 200.56-13.48 199.53-14.8 199.53-16.95L199.53-16.95Q199.53-19.15 200.73-20.6 201.93-22.05 203.81-22.78 205.68-23.5 207.78-23.5L207.78-23.5Q209.38-23.5 210.73-23.08 212.08-22.65 212.93-21.95L212.93-21.95 213.43-23 215.33-23Q215.58-21.3 215.96-19.6 216.33-17.9 216.83-16.2L216.83-16.2 215.18-15.7Q214.08-18.4 212.31-20.08 210.53-21.75 207.73-21.75L207.73-21.75Q205.13-21.75 204.08-20.58 203.03-19.4 203.03-18.05ZM234.53-1.5L234.53-1.5Q237.18-1.5 239-2.7 240.83-3.9 242.18-5.35L242.18-5.35 243.53-4.2Q242.48-2.95 241.15-1.88 239.83-0.8 238.05-0.15 236.28 0.5 233.78 0.5L233.78 0.5Q230.73 0.5 228.1-0.95 225.48-2.4 223.88-5.1 222.28-7.8 222.28-11.5L222.28-11.5Q222.28-15.2 223.88-17.9 225.48-20.6 228.1-22.05 230.73-23.5 233.78-23.5L233.78-23.5Q236.88-23.5 239.1-22.3 241.33-21.1 242.55-18.65 243.78-16.2 243.78-12.5L243.78-12.5 226.28-12.5 226.28-14.25 238.98-14.25Q238.78-17.85 237.55-19.8 236.33-21.75 233.53-21.75L233.53-21.75Q231.08-21.75 229.55-20.45 228.03-19.15 227.33-16.82 226.63-14.5 226.63-11.5L226.63-11.5Q226.63-8.55 227.73-6.3 228.83-4.05 230.63-2.78 232.43-1.5 234.53-1.5Z" opacity="1" transform="matrix(1,0,0,1,0,0)" fill="#be959f" class="wordmark-text-0" data-fill-palette-color="primary" id="text-0"></path></svg></g></svg></g><g transform="matrix(1,0,0,1,0,74.89720763775446)"><svg viewBox="0 0 395.52 25.09398391713234" height="25.09398391713234" width="395.52"><g transform="matrix(1,0,0,1,0,0)"><svg width="395.52" viewBox="2.1500000953674316 -35.849998474121094 733.6199951171875 46.55000305175781" height="25.09398391713234" data-palette-color="#be959f"><path d="M12.05-4.5L12.05-4.5Q18.05-4.5 18.05-9.3L18.05-9.3Q18.05-11.8 15.4-13L15.4-13Q14-13.7 11.78-14.3 9.55-14.9 8.08-15.53 6.6-16.15 5.1-17.25L5.1-17.25Q2.15-19.45 2.15-24.03 2.15-28.6 5.33-31.23 8.5-33.85 13.63-33.85 18.75-33.85 23.15-31.8L23.15-31.8 23.15-24.3 18.05-23.95 18.05-26.85Q18.05-27.6 17.85-27.95L17.85-27.95Q17.3-28.9 14.33-28.9 11.35-28.9 9.93-27.85 8.5-26.8 8.5-24.6L8.5-24.6Q8.5-23 9.7-21.8L9.7-21.8Q10.5-21 12.08-20.48 13.65-19.95 15.43-19.4 17.2-18.85 18.57-18.2 19.95-17.55 21.45-16.4L21.45-16.4Q24.5-14.15 24.5-9.45 24.5-4.75 21.13-2.05 17.75 0.65 12.23 0.65 6.7 0.65 2.3-1.4L2.3-1.4 2.3-9.3 7.4-9.65 7.4-6.6Q7.4-5.85 7.6-5.5 7.8-5.15 8.83-4.83 9.85-4.5 12.05-4.5ZM32.8-30.45L32.8-30.45 36.05-30.45 36.05-25.15 42.7-25.15 42.2-20.95 36.05-20.95 36.05-7.8Q36.05-5.6 36.85-4.73 37.65-3.85 39.32-3.85 41-3.85 42.7-4.9L42.7-4.9 44.2-1.05Q41.7 0.7 37.85 0.7L37.85 0.7Q35.6 0.7 34.05 0.13 32.5-0.45 31.75-1.15 31-1.85 30.6-3.2 30.2-4.55 30.15-5.33 30.1-6.1 30.1-7.6L30.1-7.6 30.1-20.95 26.55-20.95 27.05-24.6Q29.4-24.8 30.6-26.28 31.8-27.75 32.8-30.45ZM68.55-24.15L68.55-24.15 68.55-5.55Q68.55-4.75 68.82-4.45 69.1-4.15 69.8-4.1L69.8-4.1 71.4-4 71.4 0 63.45 0 63.45-2.9 63.3-2.95Q60.8 0.65 56.45 0.65L56.45 0.65Q51.35 0.65 48.9-2.6 46.45-5.85 46.45-11.5L46.45-11.5Q46.45-18.3 49.75-22.1 53.05-25.9 59.65-25.9L59.65-25.9Q63.9-25.9 68.55-24.15ZM62.75-7.95L62.75-7.95 62.75-20.9Q61.35-21.55 58.9-21.55L58.9-21.55Q55.55-21.55 54.05-18.85 52.55-16.15 52.55-11.7L52.55-11.7Q52.55-3.6 57.75-3.6L57.75-3.6Q59.95-3.6 61.35-4.93 62.75-6.25 62.75-7.95ZM92.84-0.95L92.84-0.95 92.84-4.75Q90.09-0.85 84.74-0.85L84.74-0.85Q76.99-0.85 76.99-9.5L76.99-9.5 76.99-19.55Q76.99-20.9 75.74-20.95L75.74-20.95 74.14-21.05 74.14-25.15 82.94-25.15 82.94-10.8Q82.94-8.15 83.69-6.8 84.44-5.45 86.79-5.45 89.14-5.45 90.57-6.9 91.99-8.35 91.99-10.4L91.99-10.4 91.99-19.45Q91.99-20.3 91.72-20.63 91.44-20.95 90.74-20.95L90.74-20.95 89.14-21.05 89.14-25.15 97.94-25.15 97.94-0.95Q97.94 5.1 95.02 7.9 92.09 10.7 86.17 10.7 80.24 10.7 76.94 9.05L76.94 9.05 76.94 2.1 81.69 1.7 81.69 4.1Q81.69 5.45 82.94 5.93 84.19 6.4 86.39 6.4L86.39 6.4Q92.84 6.4 92.84-0.95ZM114.84-5.6L114.84-5.6 122.89-28.9 119.74-29.2 119.74-33.25 131.19-33.25 141.39-4.4 141.44-4.4 144.29-4.25 144.29 0 131.39 0 131.39-4.05 133.29-4.2Q134.14-4.3 134.44-4.6 134.74-4.9 134.49-5.7L134.49-5.7 133.44-8.8 121.74-8.8 120.24-4.4 123.24-4.25 123.24 0 111.69 0 111.69-4.05 113.34-4.2Q114.39-4.3 114.84-5.6ZM127.74-27.65L127.59-27.65 122.94-13.4 132.24-13.4 127.74-27.65ZM149.24-5.6L149.24-5.6 149.24-29.95Q149.24-30.75 148.96-31.05 148.69-31.35 147.99-31.4L147.99-31.4 146.24-31.5 146.24-35.65 155.14-35.65 155.14-22.2Q157.74-25.9 162.44-25.9L162.44-25.9Q166.24-25.9 168.31-23.73 170.39-21.55 170.39-17.2L170.39-17.2 170.39-4.15 173.24-4 173.24 0 161.34 0 161.34-3.8 162.99-3.95Q163.74-4.05 164.09-4.38 164.44-4.7 164.44-5.6L164.44-5.6 164.44-15.9Q164.44-18.5 163.61-19.9 162.79-21.3 160.41-21.3 158.04-21.3 156.61-19.83 155.19-18.35 155.19-16.25L155.19-16.25 155.19-4.15 158.04-4 158.04 0 146.14 0 146.14-3.8 147.79-3.95Q148.54-4.05 148.89-4.38 149.24-4.7 149.24-5.6ZM188.73-25.9L188.73-25.9Q192.48-25.9 194.68-24.08 196.88-22.25 196.88-18.95L196.88-18.95Q196.88-16.75 195.93-15.08 194.98-13.4 193.58-12.45 192.18-11.5 190.18-10.9L190.18-10.9Q186.83-9.9 182.63-9.9L182.63-9.9Q182.78-7.25 184.28-5.63 185.78-4 188.88-4 191.98-4 195.08-6.2L195.08-6.2 196.98-2.15Q195.98-1.25 193.61-0.3 191.23 0.65 188.18 0.65L188.18 0.65Q182.08 0.65 179.23-2.73 176.38-6.1 176.38-12 176.38-17.9 179.63-21.9 182.88-25.9 188.73-25.9ZM186.46-14.48Q188.28-14.8 189.83-15.93 191.38-17.05 191.38-18.6L191.38-18.6Q191.38-21.65 188.38-21.65L188.38-21.65Q185.58-21.65 184.08-19.43 182.58-17.2 182.43-14.1L182.43-14.1Q184.63-14.15 186.46-14.48ZM222.83-24.15L222.83-24.15 222.83-5.55Q222.83-4.75 223.11-4.45 223.38-4.15 224.08-4.1L224.08-4.1 225.68-4 225.68 0 217.73 0 217.73-2.9 217.58-2.95Q215.08 0.65 210.73 0.65L210.73 0.65Q205.63 0.65 203.18-2.6 200.73-5.85 200.73-11.5L200.73-11.5Q200.73-18.3 204.03-22.1 207.33-25.9 213.93-25.9L213.93-25.9Q218.18-25.9 222.83-24.15ZM217.03-7.95L217.03-7.95 217.03-20.9Q215.63-21.55 213.18-21.55L213.18-21.55Q209.83-21.55 208.33-18.85 206.83-16.15 206.83-11.7L206.83-11.7Q206.83-3.6 212.03-3.6L212.03-3.6Q214.23-3.6 215.63-4.93 217.03-6.25 217.03-7.95ZM241.28-25.9L241.28-25.9Q243.43-25.9 245.38-25.3L245.38-25.3 245.38-30.35Q245.38-31.45 244.08-31.55L244.08-31.55 241.93-31.7 241.93-35.65 251.23-35.65 251.23-5.25Q251.28-4.1 252.48-4.1L252.48-4.1 254.23-4 254.23 0 246.13 0 246.13-2.95 245.98-3Q243.73 0.65 239.18 0.65L239.18 0.65Q233.48 0.65 231.18-3.15L231.18-3.15Q229.08-6.6 229.08-11.6L229.08-11.6Q229.08-18.1 232.3-22 235.53-25.9 241.28-25.9ZM245.38-7.8L245.38-7.8 245.38-20.75Q243.58-21.55 241.58-21.55L241.58-21.55Q238.28-21.55 236.75-18.9 235.23-16.25 235.23-12.15L235.23-12.15Q235.23-3.75 240.63-3.75L240.63-3.75Q242.68-3.75 244.03-4.93 245.38-6.1 245.38-7.8ZM278.17-5.65L283.67-24.15 288.52-24.15 293.72-5.55 293.82-5.55 297.22-21 294.67-21.15 294.67-25.15 304.72-25.15 304.72-21.3 303.07-21.2Q302.07-21.1 301.72-20L301.72-20 296.97 0 289.77 0 285.67-14.9 285.52-14.9 281.27 0 273.92 0 268.87-19.95Q268.62-20.65 268.35-20.9 268.07-21.15 267.42-21.2L267.42-21.2 265.97-21.3 265.97-25.15 277.42-25.15 277.42-21.15 274.62-21 278.07-5.65 278.17-5.65ZM306.97-25.15L315.92-25.15 315.92-4.15 318.77-4 318.77 0 306.87 0 306.87-3.8 308.52-3.95Q309.97-4.1 309.97-5.55L309.97-5.55 309.97-19.45Q309.97-20.3 309.7-20.6 309.42-20.9 308.72-20.9L308.72-20.9 306.97-21 306.97-25.15ZM309.62-29.48Q308.57-30.5 308.57-32.1 308.57-33.7 309.62-34.77 310.67-35.85 312.37-35.85 314.07-35.85 315.15-34.77 316.22-33.7 316.22-32.1 316.22-30.5 315.15-29.48 314.07-28.45 312.37-28.45 310.67-28.45 309.62-29.48ZM327.22-30.45L327.22-30.45 330.47-30.45 330.47-25.15 337.12-25.15 336.62-20.95 330.47-20.95 330.47-7.8Q330.47-5.6 331.27-4.73 332.07-3.85 333.74-3.85 335.42-3.85 337.12-4.9L337.12-4.9 338.62-1.05Q336.12 0.7 332.27 0.7L332.27 0.7Q330.02 0.7 328.47 0.13 326.92-0.45 326.17-1.15 325.42-1.85 325.02-3.2 324.62-4.55 324.57-5.33 324.52-6.1 324.52-7.6L324.52-7.6 324.52-20.95 320.97-20.95 321.47-24.6Q323.82-24.8 325.02-26.28 326.22-27.75 327.22-30.45ZM343.57-5.6L343.57-5.6 343.57-29.95Q343.57-30.75 343.29-31.05 343.02-31.35 342.32-31.4L342.32-31.4 340.57-31.5 340.57-35.65 349.47-35.65 349.47-22.2Q352.07-25.9 356.77-25.9L356.77-25.9Q360.57-25.9 362.64-23.73 364.72-21.55 364.72-17.2L364.72-17.2 364.72-4.15 367.57-4 367.57 0 355.67 0 355.67-3.8 357.32-3.95Q358.07-4.05 358.42-4.38 358.77-4.7 358.77-5.6L358.77-5.6 358.77-15.9Q358.77-18.5 357.94-19.9 357.12-21.3 354.74-21.3 352.37-21.3 350.94-19.83 349.52-18.35 349.52-16.25L349.52-16.25 349.52-4.15 352.37-4 352.37 0 340.47 0 340.47-3.8 342.12-3.95Q342.87-4.05 343.22-4.38 343.57-4.7 343.57-5.6ZM404.31-8.9L404.31 0 380.56 0 380.56-4.05 382.21-4.2Q383.66-4.35 383.66-5.6L383.66-5.6 383.66-28.85 380.81-29 380.81-33.25 403.71-33.25 403.71-24.95 398.61-24.6 398.61-26.6Q398.61-27.45 398.36-27.8 398.11-28.15 397.16-28.15L397.16-28.15 389.76-28.15 389.76-19.6 401.31-19.6 401.31-14.5 389.76-14.5 389.76-5.15 397.81-5.15Q398.71-5.15 398.96-5.53 399.21-5.9 399.21-6.75L399.21-6.75 399.21-9.25 404.31-8.9ZM423.16-21.15L423.16-25.15 433.71-25.15 433.71-21.25 432.16-21.15Q431.16-21.05 430.81-19.95L430.81-19.95 424.36 0 416.71 0 409.71-19.9Q409.46-20.6 409.18-20.85 408.91-21.1 408.26-21.15L408.26-21.15 406.81-21.25 406.81-25.15 418.56-25.15 418.56-21.15 415.51-21 420.66-4.55 420.76-4.55 425.76-21 423.16-21.15ZM448.41-25.9L448.41-25.9Q452.16-25.9 454.36-24.08 456.56-22.25 456.56-18.95L456.56-18.95Q456.56-16.75 455.61-15.08 454.66-13.4 453.26-12.45 451.86-11.5 449.86-10.9L449.86-10.9Q446.51-9.9 442.31-9.9L442.31-9.9Q442.46-7.25 443.96-5.63 445.46-4 448.56-4 451.66-4 454.76-6.2L454.76-6.2 456.66-2.15Q455.66-1.25 453.28-0.3 450.91 0.65 447.86 0.65L447.86 0.65Q441.76 0.65 438.91-2.73 436.06-6.1 436.06-12 436.06-17.9 439.31-21.9 442.56-25.9 448.41-25.9ZM446.13-14.48Q447.96-14.8 449.51-15.93 451.06-17.05 451.06-18.6L451.06-18.6Q451.06-21.65 448.06-21.65L448.06-21.65Q445.26-21.65 443.76-19.43 442.26-17.2 442.11-14.1L442.11-14.1Q444.31-14.15 446.13-14.48ZM463.15-5.6L463.15-5.6 463.15-19.45Q463.15-20.25 462.88-20.58 462.6-20.9 461.9-20.95L461.9-20.95 459.8-21.1 459.8-25.15 468.25-25.15 468.25-21.4Q469.15-23.35 471.05-24.63 472.95-25.9 475.43-25.9 477.9-25.9 480.15-24.8L480.15-24.8 480.15-17.35 475.5-17 475.5-19.3Q475.5-20.3 475-20.55L475-20.55Q474.45-20.8 473.65-20.8L473.65-20.8Q471.65-20.8 470.38-19.38 469.1-17.95 469.1-15.75L469.1-15.75 469.1-4.15 473.45-3.95 473.45 0 460.05 0 460.05-3.8 461.7-3.95Q462.45-4.05 462.8-4.38 463.15-4.7 463.15-5.6ZM501.55-0.95L501.55-0.95 501.55-4.75Q498.8-0.85 493.45-0.85L493.45-0.85Q485.7-0.85 485.7-9.5L485.7-9.5 485.7-19.55Q485.7-20.9 484.45-20.95L484.45-20.95 482.85-21.05 482.85-25.15 491.65-25.15 491.65-10.8Q491.65-8.15 492.4-6.8 493.15-5.45 495.5-5.45 497.85-5.45 499.28-6.9 500.7-8.35 500.7-10.4L500.7-10.4 500.7-19.45Q500.7-20.3 500.43-20.63 500.15-20.95 499.45-20.95L499.45-20.95 497.85-21.05 497.85-25.15 506.65-25.15 506.65-0.95Q506.65 5.1 503.73 7.9 500.8 10.7 494.88 10.7 488.95 10.7 485.65 9.05L485.65 9.05 485.65 2.1 490.4 1.7 490.4 4.1Q490.4 5.45 491.65 5.93 492.9 6.4 495.1 6.4L495.1 6.4Q501.55 6.4 501.55-0.95ZM531.04-5.6L531.04-5.6 531.04-28.3 527.14-28.3Q526-28.3 526-26.75L526-26.75 526-24.4 520.89-24.75 520.89-33.25 547.04-33.25 547.04-24.75 541.94-24.4 541.94-26.75Q541.94-27.6 541.69-27.95 541.44-28.3 540.5-28.3L540.5-28.3 537.1-28.3 537.1-4.4 541.04-4.25 541.04 0 526.94 0 526.94-4.05 529.6-4.2Q531.04-4.35 531.04-5.6ZM561.99-25.9L561.99-25.9Q565.74-25.9 567.94-24.08 570.14-22.25 570.14-18.95L570.14-18.95Q570.14-16.75 569.19-15.08 568.24-13.4 566.84-12.45 565.44-11.5 563.44-10.9L563.44-10.9Q560.09-9.9 555.89-9.9L555.89-9.9Q556.04-7.25 557.54-5.63 559.04-4 562.14-4 565.24-4 568.34-6.2L568.34-6.2 570.24-2.15Q569.24-1.25 566.87-0.3 564.49 0.65 561.44 0.65L561.44 0.65Q555.34 0.65 552.49-2.73 549.64-6.1 549.64-12 549.64-17.9 552.89-21.9 556.14-25.9 561.99-25.9ZM559.72-14.48Q561.54-14.8 563.09-15.93 564.64-17.05 564.64-18.6L564.64-18.6Q564.64-21.65 561.64-21.65L561.64-21.65Q558.84-21.65 557.34-19.43 555.84-17.2 555.69-14.1L555.69-14.1Q557.89-14.15 559.72-14.48ZM579.69-12.85Q579.69-8.6 581.29-6.25 582.89-3.9 585.91-3.9 588.94-3.9 591.89-6.05L591.89-6.05 594.04-2.2Q590.49 0.7 585.14 0.7 579.79 0.7 576.71-2.68 573.64-6.05 573.64-12.65 573.64-19.25 577.16-22.58 580.69-25.9 585.11-25.9 589.54-25.9 593.34-23.85L593.34-23.85 593.34-17.35 588.74-17 588.74-19.4Q588.74-20.75 587.76-21.08 586.79-21.4 585.74-21.4L585.74-21.4Q579.69-21.4 579.69-12.85L579.69-12.85ZM600.24-5.6L600.24-5.6 600.24-29.95Q600.24-30.75 599.96-31.05 599.69-31.35 598.99-31.4L598.99-31.4 597.24-31.5 597.24-35.65 606.14-35.65 606.14-22.2Q608.74-25.9 613.44-25.9L613.44-25.9Q617.24-25.9 619.31-23.73 621.39-21.55 621.39-17.2L621.39-17.2 621.39-4.15 624.24-4 624.24 0 612.34 0 612.34-3.8 613.99-3.95Q614.74-4.05 615.09-4.38 615.44-4.7 615.44-5.6L615.44-5.6 615.44-15.9Q615.44-18.5 614.61-19.9 613.79-21.3 611.41-21.3 609.04-21.3 607.61-19.83 606.19-18.35 606.19-16.25L606.19-16.25 606.19-4.15 609.04-4 609.04 0 597.14 0 597.14-3.8 598.79-3.95Q599.54-4.05 599.89-4.38 600.24-4.7 600.24-5.6ZM637.48-29L637.48-33.25 651.58-33.25Q662.38-33.25 662.38-24.9L662.38-24.9Q662.38-20.3 657.78-17.9L657.78-17.9Q660.73-17.15 662.41-15.15 664.08-13.15 664.08-9.95L664.08-9.95Q664.08-5.1 660.81-2.55 657.53 0 651.28 0L651.28 0 637.23 0 637.23-4.05 638.88-4.2Q640.33-4.35 640.33-5.6L640.33-5.6 640.33-28.85 637.48-29ZM651.38-15.15L646.43-15.15 646.43-4.7 651.13-4.7Q657.63-4.7 657.63-10L657.63-10Q657.63-12.5 656.01-13.83 654.38-15.15 651.38-15.15L651.38-15.15ZM650.48-28.65L646.43-28.65 646.43-19.6 650.13-19.6Q653.23-19.6 654.71-20.88 656.18-22.15 656.18-24.45 656.18-26.75 654.71-27.7 653.23-28.65 650.48-28.65L650.48-28.65ZM679.83-25.9L679.83-25.9Q683.58-25.9 685.78-24.08 687.98-22.25 687.98-18.95L687.98-18.95Q687.98-16.75 687.03-15.08 686.08-13.4 684.68-12.45 683.28-11.5 681.28-10.9L681.28-10.9Q677.93-9.9 673.73-9.9L673.73-9.9Q673.88-7.25 675.38-5.63 676.88-4 679.98-4 683.08-4 686.18-6.2L686.18-6.2 688.08-2.15Q687.08-1.25 684.7-0.3 682.33 0.65 679.28 0.65L679.28 0.65Q673.18 0.65 670.33-2.73 667.48-6.1 667.48-12 667.48-17.9 670.73-21.9 673.98-25.9 679.83-25.9ZM677.55-14.48Q679.38-14.8 680.93-15.93 682.48-17.05 682.48-18.6L682.48-18.6Q682.48-21.65 679.48-21.65L679.48-21.65Q676.68-21.65 675.18-19.43 673.68-17.2 673.53-14.1L673.53-14.1Q675.73-14.15 677.55-14.48ZM713.93-24.15L713.93-24.15 713.93-5.55Q713.93-4.75 714.2-4.45 714.48-4.15 715.18-4.1L715.18-4.1 716.78-4 716.78 0 708.83 0 708.83-2.9 708.68-2.95Q706.18 0.65 701.83 0.65L701.83 0.65Q696.73 0.65 694.28-2.6 691.83-5.85 691.83-11.5L691.83-11.5Q691.83-18.3 695.13-22.1 698.43-25.9 705.03-25.9L705.03-25.9Q709.28-25.9 713.93-24.15ZM708.13-7.95L708.13-7.95 708.13-20.9Q706.73-21.55 704.28-21.55L704.28-21.55Q700.93-21.55 699.43-18.85 697.93-16.15 697.93-11.7L697.93-11.7Q697.93-3.6 703.13-3.6L703.13-3.6Q705.33-3.6 706.73-4.93 708.13-6.25 708.13-7.95ZM724.37-30.45L724.37-30.45 727.62-30.45 727.62-25.15 734.27-25.15 733.77-20.95 727.62-20.95 727.62-7.8Q727.62-5.6 728.42-4.73 729.22-3.85 730.9-3.85 732.57-3.85 734.27-4.9L734.27-4.9 735.77-1.05Q733.27 0.7 729.42 0.7L729.42 0.7Q727.17 0.7 725.62 0.13 724.07-0.45 723.32-1.15 722.57-1.85 722.17-3.2 721.77-4.55 721.72-5.33 721.67-6.1 721.67-7.6L721.67-7.6 721.67-20.95 718.12-20.95 718.62-24.6Q720.97-24.8 722.17-26.28 723.37-27.75 724.37-30.45Z" opacity="1" transform="matrix(1,0,0,1,0,0)" fill="#be959f" class="slogan-text-1" data-fill-palette-color="secondary" id="text-1"></path></svg></g></svg></g></svg></g></svg></g><g transform="matrix(1,0,0,1,122.70922581505742,0)"><svg viewBox="0 0 150.10154836988514 138.1878267288536" height="138.1878267288536" width="150.10154836988514"><g><svg xmlns="http://www.w3.org/2000/svg" xmlns:xlink="http://www.w3.org/1999/xlink" version="1.1" x="0" y="0" viewBox="9.39799976348877 12.34000015258789 80.19300842285156 73.8280029296875" enable-background="new 0 0 100 100" xml:space="preserve" height="138.1878267288536" width="150.10154836988514" class="icon-icon-0" data-fill-palette-color="accent" id="icon-0"><g fill="#13472e" data-fill-palette-color="accent"><path d="M55.894 49.046V51.038C55.894 53.547 57.036 54.713 59.222 54.713H61.979C64.585 54.713 66.358 56.832 66.358 59.088V61.406C66.358 63.915 65.221 65.427 62.563 65.427H59.367C56.571 65.427 55.114 64.149 55.114 61.538V59.38C55.114 57.321 53.635 55.97 51.833 55.97H47.074C44.694 55.97 44.115 57.578 44.115 59.38V63.629C44.115 65.881 45.466 66.653 47.203 66.653H50.134C53.444 66.653 55.034 68.105 55.034 70.423V72.024C55.034 74.658 56.532 75.656 58.915 75.656H63.83C66.263 75.656 67.452 74.372 67.452 72.177V70.381C67.452 67.358 69.128 66.393 72.345 66.393H75.729C77.595 66.393 78.454 65.235 78.454 63.691V57.451C78.454 55.393 77.296 54.428 75.045 54.428H70.991C68.572 54.428 66.403 52.599 66.403 49.218V47.226C66.403 44.717 65.261 43.551 63.074 43.551H60.317C57.711 43.551 55.938 41.433 55.938 39.177V36.859C55.938 34.35 57.076 32.838 59.734 32.838H62.929C65.725 32.838 67.183 34.116 67.183 36.727V38.885C67.183 40.944 68.662 42.294 70.464 42.294H75.222C77.602 42.294 78.181 40.686 78.181 38.885V34.636C78.181 32.385 76.83 31.613 75.093 31.613H72.162C68.852 31.613 67.262 30.161 67.262 27.843V26.327C67.262 23.694 65.837 22.61 63.454 22.61H58.466C56.033 22.61 54.844 23.894 54.844 26.09V27.885C54.844 30.908 53.168 31.873 49.951 31.873H46.566C44.701 31.873 43.842 33.031 43.842 34.575V40.815C43.842 42.874 44.999 43.839 47.252 43.839H51.304C53.725 43.836 55.894 45.665 55.894 49.046" fill="#13472e" data-fill-palette-color="accent"></path><path d="M86.07 54.482A3.52 3.52 0 0 0 89.591 50.961V48.273A3.52 3.52 0 0 0 86.07 44.751H83.382A3.52 3.52 0 0 0 79.861 48.273V50.961A3.52 3.52 0 0 0 83.382 54.482z" fill="#13472e" data-fill-palette-color="accent"></path><path d="M36.547 31.871H39.555C41.806 31.871 42.964 30.906 42.964 28.848V26.874C43.077 23.68 45.188 22.216 47.542 22.216H50.55C52.803 22.216 53.96 21.251 53.96 19.193V15.042C53.96 13.498 53.102 12.34 51.236 12.34H45.541C43.695 12.34 42.91 13.195 42.91 15.122V17.556C42.91 19.751 41.229 21.809 38.739 21.92H34.545C32.7 21.92 31.914 22.775 31.914 24.702V27.21C31.914 29.466 30.143 31.585 27.535 31.585H24.778C22.59 31.585 21.449 32.75 21.449 35.259V38.33C21.449 41.711 19.281 43.54 16.861 43.54H12.807C10.556 43.54 9.398 44.505 9.398 46.563V53.329C9.398 55.388 10.556 56.352 12.807 56.352H16.861C19.281 56.352 21.449 57.401 21.449 60.783V63.195C21.449 65.704 22.591 66.869 24.778 66.869H27.535C30.142 66.869 31.914 68.988 31.914 71.244V73.783C31.914 75.71 32.7 76.565 34.545 76.565H38.758L38.737 76.589C41.228 76.699 42.908 78.758 42.908 80.953V83.386C42.908 85.313 43.693 86.168 45.539 86.168H51.233C53.099 86.168 53.958 85.01 53.958 83.466V79.315C53.958 77.256 52.8 76.291 50.549 76.291H47.54C45.192 76.291 43.087 74.834 42.964 71.658V69.605C42.964 67.546 41.806 66.582 39.555 66.582H36.547C34.126 66.582 31.957 64.754 31.957 61.373V59.74C31.957 57.231 33.1 56.066 35.287 56.066H38.043C40.65 56.066 42.423 53.947 42.423 51.691V48.2C42.423 45.944 40.651 43.825 38.043 43.825H35.287C33.099 43.825 31.957 42.659 31.957 40.151V36.791C31.957 33.411 34.126 31.871 36.547 31.871" fill="#13472e" data-fill-palette-color="accent"></path></g></svg></g></svg></g><g></g></svg></g><defs></defs></svg><rect width="387.2432927980063" height="247.2" fill="none" stroke="none" visibility="hidden"></rect></g></svg></g></g></g></g><rect width="399.21151884791124" height="71.32474400293734" x="121.39426607375984" y="220.70123816906005" rx="2.5" ry="2.5" fill="transparent" class="logo-element-hover-target"></rect><rect width="399.2011157800261" height="36.56885913022194" x="121.39946760770229" y="294.0311378100522" rx="2.5" ry="2.5" fill="transparent" class="logo-element-hover-target"></rect><rect width="158.9605703328981" height="147.29605397356397" x="241.51976582898175" y="71.40000305972586" rx="2.5" ry="2.5" fill="transparent" class="logo-element-hover-target"></rect></svg>